PathFileType	4	(X/Y/Z)	20_2_90_p0_0-754_filt_butterworth.trc
DataRate	CameraRate	NumFrames	NumMarkers	Units	OrigDataRate	OrigDataStartFrame	OrigNumFrames
59.0	59.0	6	27	m	59.0	565	754
Frame#	Time	RHip			RKnee			RAnkle			RBigToe			RSmallToe			RHeel			LHip			LKnee			LAnkle			LBigToe			LSmallToe			LHeel			Neck			Head			Nose			RShoulder			RElbow			RWrist			RThumb			RIndex			RPinky			LShoulder			LElbow			LWrist			LThumb			LIndex			LPinky			
		X1	Y1	Z1	X2	Y2	Z2	X3	Y3	Z3	X4	Y4	Z4	X5	Y5	Z5	X6	Y6	Z6	X7	Y7	Z7	X8	Y8	Z8	X9	Y9	Z9	X10	Y10	Z10	X11	Y11	Z11	X12	Y12	Z12	X13	Y13	Z13	X14	Y14	Z14	X15	Y15	Z15	X16	Y16	Z16	X17	Y17	Z17	X18	Y18	Z18	X19	Y19	Z19	X20	Y20	Z20	X21	Y21	Z21	X22	Y22	Z22	X23	Y23	Z23	X24	Y24	Z24	X25	Y25	Z25	X26	Y26	Z26	X27	Y27	Z27	
565	9.576271186440678	0.31575479488280994	0.5677391863804789	0.9129923064734451	0.34265902039896046	0.5658247556508613	1.329674542062115	0.32476531946112785	0.7966526109293673	1.7730809003276864	0.31558536681105925	0.5687235105392835	1.7725155133347108	0.37056506315246446	0.6201120449571986	1.7842248819097526	0.3349650709742513	0.9288765676689568	1.8512909962611634	0.17401844171909242	0.48007977895431797	0.9166200892928906	0.18403384220758795	0.4382503656314778	1.292924457101321	0.17401612117857954	0.7834491594213656	1.7610153511918898	0.16627349717912446	0.5418991209402519	1.756357797114597	0.13033086073756778	0.5886590427355697	1.758660162241763	0.18318665501761988	0.9006606619266709	1.8273516398952583	0.2103959251289842	0.49333926522641325	0.4140338387347378	0.25969928555134514	0.363325563979857	0.1802687751951814	0.272923111287922	0.36267556773740683	0.326237259047826	0.2605915202535515	0.7434129515063265	0.4336871837112279	0.45317667218826824	0.7668405272716152	0.5371241812866971	0.4422975071933306	0.5170822945745835	0.4493279493462175	0.3841392252283444	0.4027381994984092	0.4074574361113121	0.40509692190169044	0.39209140830114336	0.39593521967118805	0.458934439753094	0.3740180686516748	0.43301396465804687	0.13857171671554797	0.34442785670628373	0.47533516315909063	0.3413926439419626	0.22769515951024658	0.5510458967125244	0.48768948529408207	-0.025206697217901128	0.5465810711730422	0.5583978983715286	-0.07731492631812609	0.5373719357545622	0.5671270756310117	-0.08256978689943371	0.5391944526136466	0.5700442292879826	-0.05457993825274797	0.5483247609909854
566	9.59322033898305	0.3158027271036689	0.5656597410727326	0.9115084107166741	0.3435376397853786	0.5635538972762502	1.3280486560777789	0.32563720211033914	0.7922352485880999	1.7720537452527292	0.31585169996045215	0.5726605251514415	1.7753271549558978	0.37169470397341803	0.6218764869576494	1.7847743268389065	0.3349668467125318	0.9279999313304432	1.8523674813505713	0.17391294214663527	0.4799818090588539	0.9162395247498554	0.18144605095661268	0.4420444212500095	1.293676406823118	0.17427313742423733	0.7845137262773725	1.762578508647664	0.1649336438804767	0.5439216918940408	1.7571398425220686	0.1299537577881323	0.590008211982503	1.7595828855610245	0.18310075938750542	0.9016800473623192	1.8291865759330759	0.2091799794092783	0.4883777929266376	0.4125170562198289	0.259716743196506	0.3634750058156595	0.17861446544473022	0.27298597113766326	0.3627530571638601	0.3266436092239435	0.260874553896854	0.7406551525209173	0.43324538133186397	0.4509192737338192	0.7686480118382089	0.5371129705514109	0.44257287268238854	0.5143251019852543	0.45185015617819146	0.3841222369529409	0.40199551629989305	0.4082055503558254	0.41128387948270834	0.38638604739696747	0.40084345489101836	0.4611568575569538	0.37951773484097573	0.4372080549591407	0.13719133535372405	0.34438754185909004	0.47544499239585497	0.3388963281459907	0.22442492263594527	0.553543464706821	0.4866826948489273	-0.02416558480277669	0.5464914010324391	0.5576327245315986	-0.07592565971432938	0.5351825704995179	0.5673875717591841	-0.07803216282704661	0.5378333678872289	0.5701450672701169	-0.055284028980028016	0.5479751719708308
567	9.610169491525424	0.3155892104887454	0.564753785807176	0.9099677457933838	0.3438676493419662	0.5623549025285632	1.3251756512693036	0.32597535093979174	0.7910469130505065	1.7713563313482212	0.31629663193268553	0.57434691515778	1.776404248004875	0.3731980829222754	0.6223339240210453	1.7848898364156986	0.3347371266736039	0.9240681343553576	1.8521613799733876	0.17389393007225004	0.4797719332905255	0.9148727893934587	0.17876195972928968	0.4510127615225157	1.2943368398596147	0.1745780955736588	0.7854183311659982	1.7644847832396442	0.16417821781258185	0.5443557682806099	1.7573728079773925	0.13001649692979036	0.5895402978596627	1.760672988799725	0.1829972792665419	0.9019624445149654	1.8298310145263128	0.20855589489339738	0.4847915294104715	0.41133050880508537	0.2597241417312456	0.36358732861841325	0.1767186290068795	0.2730427764274829	0.362819951612232	0.32703401782959074	0.2626931794984212	0.7330479039487446	0.43342807627952834	0.4483116835102416	0.7703135113654382	0.5378192510862471	0.443179857670912	0.5133552474812703	0.45475115368124736	0.385763079196295	0.4007784179315174	0.4085769640169687	0.4185933793900488	0.3807717901514145	0.4039615060280123	0.4653219581953647	0.3872969916843102	0.4398366788363083	0.13541962105735503	0.34432368274836384	0.4756297457511869	0.33545859022636715	0.2223914486746638	0.5570018473643519	0.48772601930159115	-0.02278716913530858	0.54633969596605	0.5551473231173046	-0.07528191347741894	0.5335744030710572	0.5669398414345377	-0.07527640728553439	0.5356319835944736	0.5701480859888257	-0.05593378299277908	0.5469889520698289
568	9.627118644067796	0.3156580763777721	0.564591802532972	0.908371932039675	0.34438403378581356	0.5634627175030991	1.3225639022373625	0.3261632317968224	0.7910254062215393	1.7703591971087083	0.31721359298517965	0.5770005244548748	1.777355783220401	0.37427846806219583	0.6221683285384073	1.7847992955730838	0.33430484666835397	0.9160963569346511	1.8493585099409753	0.17442704393688713	0.47961018785474463	0.9129257361875059	0.17700512184619352	0.4640697604484539	1.2946427995693703	0.17480553019469203	0.7857834162607217	1.7654108096836723	0.16400038999140934	0.5447310997581037	1.7575945417077234	0.1302012072383489	0.5885850580066537	1.7620382237330412	0.1832741202262041	0.8995365870262482	1.8284289498389206	0.20846847105154234	0.48329410527847194	0.4106985848038739	0.25970732323369844	0.36373972233127033	0.17516513571878833	0.2731514048296476	0.36285842381783345	0.3268295176982353	0.2666228411463516	0.7198224728632165	0.43375169745688535	0.4461994610867031	0.7705945833556553	0.5401317868666824	0.44434502683712573	0.513256648965805	0.4580670221632255	0.3901911070955205	0.39620208177746485	0.4093631082436061	0.4254974602307711	0.3729921938277609	0.40653550449639125	0.4695579106337815	0.3941343552288688	0.44077521000169534	0.13343188722438515	0.3440837563258026	0.4757612049613746	0.3308123009992608	0.22070749540436246	0.5607315376860854	0.4872344256823146	-0.021337820198243936	0.5461273098701108	0.5501830264778713	-0.07388208538793435	0.5328075669437903	0.5648842887037161	-0.07449428932203957	0.5331651077813867	0.5698327925606287	-0.05421117072870736	0.5458398046261485
569	9.64406779661017	0.31673133154840677	0.5659378955449541	0.9068962210199034	0.3450755435407947	0.5660414439815918	1.3210831659760007	0.32677308621178747	0.7889959805125292	1.7681852985699138	0.3184325399410254	0.5810905533117493	1.7787479892445028	0.3746062650884342	0.6220301703524537	1.7846997131000508	0.3343729455868174	0.9059602907676869	1.8444346725901166	0.17580302605004686	0.4796981130248045	0.9110677586283262	0.17629870611093992	0.47892013792929367	1.2952730314160104	0.1749536865980845	0.7855918616741997	1.7646827520255222	0.16409908116558225	0.5476077588776842	1.7587778359902422	0.13035924566148438	0.5878989546050508	1.7631031478886268	0.18438643702433027	0.893541000351603	1.824779629254332	0.2086689594694963	0.48326050379235486	0.41040170589313446	0.2597691010422269	0.3639884315200591	0.17412177310976798	0.27328131523870897	0.3626370025983207	0.32532467133086834	0.2722782685883529	0.7016205587446814	0.4338342554583139	0.4446680309377843	0.7694704098813371	0.5452119947031827	0.4459629856226027	0.5126240816644468	0.46265953181267583	0.39672434546638086	0.38742544563177295	0.4117098317187113	0.4305905105846198	0.3597708463649441	0.4108374679787242	0.47206662967131596	0.3963723535223207	0.44143356184190086	0.13138061812567975	0.34379177417442164	0.47543094385826834	0.32456538515694655	0.21582673009797648	0.5640621808635501	0.48338342208692664	-0.015843013430608673	0.5457409175108063	0.542984624600212	-0.06862928241690193	0.5324312054007158	0.5605858211551216	-0.07305078935843967	0.5305153191942203	0.5687269310250234	-0.046735303311473395	0.5446605984781082
570	9.66101694915254	0.31921166126275363	0.569555133930857	0.9056212948862794	0.3453174768673939	0.5695601235972267	1.32064733085641	0.32822335504345124	0.782565849748201	1.7642848998460783	0.3193503808615603	0.5844667683370176	1.7799053290634257	0.374439469931109	0.6221253315755436	1.7846533440782395	0.33588491582040453	0.8981452284167106	1.8401761244288237	0.17760300754433	0.47999776265857763	0.9096517869896461	0.1759984915456111	0.4939795386476066	1.2972213385872147	0.17514465118343206	0.784921945789259	1.7629947801024333	0.16408587218443713	0.5553856227205234	1.7618450772739198	0.13048191843538942	0.5875629981079757	1.7634752530557638	0.18611527611603346	0.8862355958853211	1.8203073317520482	0.2091921148142138	0.4844952418797665	0.40959554677785703	0.26016755736019426	0.36416095823008204	0.17306726735095299	0.2733311835443678	0.36174757606856844	0.3223486051475023	0.2784585032955928	0.6812998688503025	0.43382212105934126	0.4440889273223505	0.7679982443833442	0.5530103639468366	0.44746491968847524	0.5110939005729837	0.4691311258175902	0.40238315424531484	0.37646112526400044	0.41614015371726526	0.43312776140845005	0.3422399753051345	0.41730442547536756	0.4723066767455175	0.392201005426972	0.4431035286146221	0.1295814131581251	0.3442637157742395	0.47412810462089405	0.31544019379096283	0.20583996904261692	0.5675523337034134	0.47646324585723854	-0.0034405686251293417	0.545359555809793	0.5344392555322385	-0.05740692211364408	0.5321236603798488	0.5535779151525394	-0.06879017692558533	0.5280122336844	0.5654686166206436	-0.03207633414836234	0.5432268009154717
